<svg xmlns="http://www.w3.org/2000/svg" version="1.1" xmlns:xlink="http://www.w3.org/1999/xlink" xmlns:svgjs="http://svgjs.dev/svgjs" width="1500" height="1500" viewBox="0 0 1500 1500"><rect width="1500" height="1500" fill="#ede1d1"></rect><g transform="matrix(0.6666666666666666,0,0,0.6666666666666666,249.78425655976667,249.78425655976673)"><svg viewBox="0 0 343 343" data-background-color="#ede1d1" preserveAspectRatio="xMidYMid meet" height="1500" width="1500" xmlns="http://www.w3.org/2000/svg" xmlns:xlink="http://www.w3.org/1999/xlink"><g id="tight-bounds" transform="matrix(1,0,0,1,0.0740000000000407,0.07400000000001228)"><svg viewBox="0 0 342.85155851775386 342.85155851775386" height="342.85155851775386" width="342.85155851775386"><g><svg></svg></g><g><svg viewBox="0 0 342.85155851775386 342.85155851775386" height="342.85155851775386" width="342.85155851775386"><g><path d="M0 171.426c0-94.676 76.75-171.426 171.426-171.426 94.676 0 171.426 76.75 171.426 171.426 0 94.676-76.75 171.426-171.426 171.426-94.676 0-171.426-76.75-171.426-171.426zM171.426 340.065c93.137 0 168.639-75.502 168.639-168.639 0-93.137-75.502-168.639-168.639-168.639-93.137 0-168.639 75.502-168.639 168.639 0 93.137 75.502 168.639 168.639 168.639z" data-fill-palette-color="tertiary" fill="#6a704c" stroke="transparent"></path><ellipse rx="164.56874808852186" ry="164.56874808852186" cx="171.42577925887693" cy="171.42577925887693" fill="#6a704c" stroke="transparent" stroke-width="0" fill-opacity="1" data-fill-palette-color="tertiary"></ellipse></g><g transform="matrix(1,0,0,1,64.84655864529837,130.9774046207271)"><svg viewBox="0 0 213.1584412271571 80.89674927629963" height="80.89674927629963" width="213.1584412271571"><g><svg viewBox="0 0 213.1584412271571 80.89674927629963" height="80.89674927629963" width="213.1584412271571"><g><svg viewBox="0 0 213.1584412271571 80.89674927629963" height="80.89674927629963" width="213.1584412271571"><g transform="matrix(1,0,0,1,0,49.99743646937591)"><svg viewBox="0 0 213.1584412271571 30.89931280692372" height="30.89931280692372" width="213.1584412271571"><g id="textblocktransform"><svg viewBox="0 0 213.1584412271571 30.89931280692372" height="30.89931280692372" width="213.1584412271571" id="textblock"><g><svg viewBox="0 0 213.1584412271571 30.89931280692372" height="30.89931280692372" width="213.1584412271571"><g transform="matrix(1,0,0,1,0,0)"><svg width="213.1584412271571" viewBox="1.95 -31.74 222.3 32.23" height="30.89931280692372" data-palette-color="#ede1d1"><path d="M1.95 0L13.92 0Q13.92-1.07 13.13-1.22L13.13-1.22Q12.89-1.27 12.65-1.27L12.65-1.27 10.06-1.27 10.06-14.4 25.05-14.4 25.05-1.27 21.14-1.27 21.14 0 33.11 0Q33.11-1.07 32.32-1.22L32.32-1.22Q32.08-1.27 31.84-1.27L31.84-1.27 29.25-1.27 29.25-28.03 33.11-28.03 33.11-29.3 21.14-29.3 21.14-28.03 25.05-28.03 25.05-15.82 10.06-15.82 10.06-28.03 13.92-28.03 13.92-29.3 1.95-29.3 1.95-28.03 5.86-28.03 5.86-1.27 1.95-1.27 1.95 0ZM47.21-20.02L47.21-20.02Q50.63-20.02 51.76-17.14L51.76-17.14Q52.15-16.21 52.15-15.14L52.15-15.14Q52.15-12.7 49.8-12.16L49.8-12.16Q48.58-11.91 46.34-11.96L46.34-11.96 41.16-12.11Q41.4-17.72 44.82-19.43L44.82-19.43Q45.94-20.02 47.21-20.02ZM55.71-4.69L55.71-4.69 54.49-5.13Q52.78-1.42 48.97-0.93L48.97-0.93Q48.48-0.88 48.04-0.88L48.04-0.88Q42.92-0.88 41.6-6.98L41.6-6.98Q41.21-8.69 41.16-10.74L41.16-10.74 47.02-10.64Q52.98-10.55 54.69-11.77L54.69-11.77Q56-12.74 56-14.55L56-14.55Q56-17.87 52.63-19.82L52.63-19.82Q50.24-21.24 47.12-21.24L47.12-21.24Q41.01-21.24 38.38-16.16L38.38-16.16Q37.01-13.53 37.01-10.21L37.01-10.21Q37.01-4.15 41.35-1.22L41.35-1.22Q43.94 0.49 47.26 0.49L47.26 0.49Q52.54 0.49 55.03-3.32L55.03-3.32Q55.42-4 55.71-4.69ZM69.28-1.22L69.28-1.22 66.65-1.22 66.65-31.74 59.32-31.74 59.32-30.52 62.98-30.52 62.98-4.15Q62.98-1.9 61.71-1.46L61.71-1.46Q60.98-1.22 59.32-1.22L59.32-1.22 59.32 0 70.5 0Q70.5-1.07 69.77-1.17L69.77-1.17Q69.58-1.22 69.28-1.22ZM83.39-1.22L83.39-1.22 80.75-1.22 80.75-31.74 73.43-31.74 73.43-30.52 77.09-30.52 77.09-4.15Q77.09-1.9 75.82-1.46L75.82-1.46Q75.09-1.22 73.43-1.22L73.43-1.22 73.43 0 84.61 0Q84.61-1.07 83.88-1.17L83.88-1.17Q83.68-1.22 83.39-1.22ZM92.03-10.4L92.03-10.4Q92.03-17.97 96.18-19.63L96.18-19.63Q97.26-20.02 98.43-20.02L98.43-20.02Q103.85-20.02 104.73-13.18L104.73-13.18Q104.87-12.01 104.87-10.6L104.87-10.6Q104.87-2.39 100.38-0.98L100.38-0.98Q99.5-0.73 98.57-0.73L98.57-0.73Q93.64-0.73 92.37-6.59L92.37-6.59Q92.03-8.3 92.03-10.4ZM98.57-21.24L98.57-21.24Q93.89-21.24 90.76-18.02L90.76-18.02Q87.88-15.04 87.88-10.6L87.88-10.6Q87.88-4.44 92.37-1.37L92.37-1.37Q95.11 0.49 98.43 0.49L98.43 0.49Q103.12 0.49 106.19-2.83L106.19-2.83Q109.02-5.86 109.02-10.4L109.02-10.4Q109.02-16.55 104.48-19.53L104.48-19.53Q101.8-21.24 98.57-21.24ZM145.2-22.66L145.2-22.66Q145.2-26.37 141.68-28.17L141.68-28.17Q139.39-29.3 136.17-29.3L136.17-29.3 122.45-29.3 122.45-28.03 126.35-28.03 126.35-1.27 122.45-1.27 122.45 0 136.31 0Q142.61 0 145.54-4L145.54-4Q147.06-6.1 147.06-8.59L147.06-8.59Q147.06-12.5 143.59-14.65L143.59-14.65Q141.98-15.58 139.88-15.97L139.88-15.97Q143.39-17.29 144.71-20.41L144.71-20.41Q145.2-21.58 145.2-22.66ZM130.55-28.03L134.99-28.03Q140.02-28.03 140.71-23.58L140.71-23.58Q140.81-22.95 140.81-22.27L140.81-22.27Q140.81-19.09 138.32-17.48L138.32-17.48Q136.85-16.55 134.9-16.55L134.9-16.55 130.55-16.55 130.55-28.03ZM130.55-15.23L135.82-15.23Q140.27-15.23 141.78-11.47L141.78-11.47Q142.37-10.11 142.37-8.5L142.37-8.5Q142.37-4.74 139.93-2.64L139.93-2.64Q138.32-1.27 136.07-1.27L136.07-1.27 130.55-1.27 130.55-15.23ZM155.35-10.4L155.35-10.4Q155.35-17.97 159.5-19.63L159.5-19.63Q160.58-20.02 161.75-20.02L161.75-20.02Q167.17-20.02 168.05-13.18L168.05-13.18Q168.2-12.01 168.2-10.6L168.2-10.6Q168.2-2.39 163.7-0.98L163.7-0.98Q162.82-0.73 161.9-0.73L161.9-0.73Q156.96-0.73 155.7-6.59L155.7-6.59Q155.35-8.3 155.35-10.4ZM161.9-21.24L161.9-21.24Q157.21-21.24 154.08-18.02L154.08-18.02Q151.2-15.04 151.2-10.6L151.2-10.6Q151.2-4.44 155.7-1.37L155.7-1.37Q158.43 0.49 161.75 0.49L161.75 0.49Q166.44 0.49 169.51-2.83L169.51-2.83Q172.35-5.86 172.35-10.4L172.35-10.4Q172.35-16.55 167.8-19.53L167.8-19.53Q165.12-21.24 161.9-21.24ZM180.4-10.4L180.4-10.4Q180.4-17.97 184.55-19.63L184.55-19.63Q185.62-20.02 186.8-20.02L186.8-20.02Q192.22-20.02 193.1-13.18L193.1-13.18Q193.24-12.01 193.24-10.6L193.24-10.6Q193.24-2.39 188.75-0.98L188.75-0.98Q187.87-0.73 186.94-0.73L186.94-0.73Q182.01-0.73 180.74-6.59L180.74-6.59Q180.4-8.3 180.4-10.4ZM186.94-21.24L186.94-21.24Q182.26-21.24 179.13-18.02L179.13-18.02Q176.25-15.04 176.25-10.6L176.25-10.6Q176.25-4.44 180.74-1.37L180.74-1.37Q183.48 0.49 186.8 0.49L186.8 0.49Q191.48 0.49 194.56-2.83L194.56-2.83Q197.39-5.86 197.39-10.4L197.39-10.4Q197.39-16.55 192.85-19.53L192.85-19.53Q190.17-21.24 186.94-21.24ZM210.38-1.22L210.38-1.22 208.18-1.22 208.18-8.45 210.87-10.94 217.75 0 224.25 0Q224.25-1.07 223.51-1.17L223.51-1.17Q223.32-1.22 223.02-1.22L223.02-1.22 221.27-1.22 213.41-13.33 218-17.63Q219.7-19.24 220.58-19.43L220.58-19.43Q220.97-19.53 221.46-19.53L221.46-19.53Q222.54-19.53 222.63-20.26L222.63-20.26Q222.68-20.51 222.68-20.75L222.68-20.75 214.38-20.75 214.38-19.53 218.04-19.53 208.18-10.4 208.18-31.74 200.86-31.74 200.86-30.52 204.52-30.52 204.52-4.15Q204.52-1.9 203.25-1.46L203.25-1.46Q202.52-1.22 200.86-1.22L200.86-1.22 200.86 0 211.6 0Q211.6-1.07 210.87-1.17L210.87-1.17Q210.67-1.22 210.38-1.22Z" opacity="1" transform="matrix(1,0,0,1,0,0)" fill="#ede1d1" class="wordmark-text-0" data-fill-palette-color="quaternary" id="text-0"></path></svg></g></svg></g></svg></g></svg></g><g transform="matrix(1,0,0,1,82.64606675665138,0)"><svg viewBox="0 0 47.86630771385437 42.70285029916859" height="42.70285029916859" width="47.86630771385437"><g><svg xmlns="http://www.w3.org/2000/svg" xmlns:xlink="http://www.w3.org/1999/xlink" version="1.1" x="0" y="0" viewBox="8.387 13.005 84.192 75.11" enable-background="new 0 0 100 100" xml:space="preserve" height="42.70285029916859" width="47.86630771385437" class="icon-icon-0" data-fill-palette-color="quaternary" id="icon-0"><g fill="#ede1d1" data-fill-palette-color="quaternary"><path d="M49.569 22.967C39.594 17.276 28.892 13.842 18.524 13.005V71.356C28.891 72.17 39.574 75.51 49.569 81.055z" fill="#ede1d1" data-fill-palette-color="quaternary"></path><path d="M82.444 13.005C72.076 13.843 61.373 17.276 51.399 22.967V81.054C61.392 75.509 72.078 72.169 82.444 71.355z" fill="#ede1d1" data-fill-palette-color="quaternary"></path><path d="M49.229 84.073C50.043 84.351 50.9 84.363 51.714 84.085 63.371 79.042 75.579 76.772 87.512 77.295V19.524A67 67 0 0 0 84.272 19.469V73.063L83.42 73.119C72.748 73.816 61.688 77.296 51.399 83.167A2.83 2.83 0 0 1 49.569 83.167C39.279 77.296 28.22 73.816 17.548 73.119L16.694 73.063V19.469A66 66 0 0 0 13.455 19.524V77.295C25.387 76.771 37.569 79.03 49.229 84.073" fill="#ede1d1" data-fill-palette-color="quaternary"></path><path d="M92.579 26.009C91.509 25.86 90.422 25.781 89.342 25.674V79.224L88.374 79.168C76.179 78.469 63.314 80.945 51.399 86.233L50.483 86.614 49.568 86.233C37.651 80.945 24.787 78.468 12.592 79.168L11.625 79.224V25.674C10.544 25.782 9.457 25.861 8.387 26.009V84.716A5 5 0 0 1 9.431 85.464C22.382 83.714 35.824 83.928 48.611 88.115A19 19 0 0 1 50.484 88.02C51.145 88.02 51.769 88.057 52.356 88.115 65.141 83.927 78.585 83.714 91.535 85.464 91.535 85.464 92.009 85.002 92.579 84.716z" fill="#ede1d1" data-fill-palette-color="quaternary"></path></g></svg></g></svg></g><g></g></svg></g></svg></g></svg></g></svg></g><defs></defs></svg><rect width="342.85155851775386" height="342.85155851775386" fill="none" stroke="none" visibility="hidden"></rect></g></svg></g></svg>